<svg xmlns="http://www.w3.org/2000/svg" width="1800" height="1000" viewBox="0 0 1800 1000"><defs><radialGradient id="a" cx="45%" cy="20%" r="75%"><stop offset="0" stop-color="#f6c34a" stop-opacity=".32"/><stop offset=".38" stop-color="#111722" stop-opacity=".75"/><stop offset="1" stop-color="#020203"/></radialGradient><filter id="glow"><feGaussianBlur stdDeviation="6"/></filter></defs><rect width="1800" height="1000" fill="url(#a)"/><g opacity=".22" stroke="#f6c34a" fill="none"><path d="M0 760 C260 640 420 700 680 600 S1150 420 1800 520" stroke-width="2"/><path d="M0 815 C260 695 420 755 680 655 S1150 475 1800 575" stroke-width="1"/><path d="M260 150h850v330H260z" stroke-width="3"/><path d="M300 190h770M300 235h770M300 280h770M300 325h770M300 370h770M300 415h770" stroke-width="1"/><path d="M410 150v330M540 150v330M670 150v330M800 150v330M930 150v330" stroke-width="1"/></g><g opacity=".3" filter="url(#glow)"><circle cx="1260" cy="210" r="105" fill="#f6c34a"/><circle cx="1440" cy="350" r="75" fill="#22e6ff"/><circle cx="1140" cy="550" r="85" fill="#c56cff"/></g></svg>