<svg xmlns="http://www.w3.org/2000/svg" width="1400" height="800" viewBox="0 0 1400 800"><rect width="1400" height="800" fill="#07090d"/><g stroke="#ff5d65" opacity=".18"><path d="M0 100h1400M0 200h1400M0 300h1400M0 400h1400M0 500h1400M0 600h1400M0 700h1400"/><path d="M100 0v800M200 0v800M300 0v800M400 0v800M500 0v800M600 0v800M700 0v800M800 0v800M900 0v800M1000 0v800M1100 0v800M1200 0v800M1300 0v800"/></g><path d="M40 650 L140 610 L240 635 L360 510 L450 545 L560 380 L670 450 L800 300 L930 330 L1050 180 L1300 220" fill="none" stroke="#ff5d65" stroke-width="7"/><path d="M40 690 L140 645 L240 668 L360 550 L450 590 L560 425 L670 495 L800 350 L930 380 L1050 230 L1300 270" fill="none" stroke="#f6c34a" stroke-width="3" opacity=".7"/></svg>